PathFileType	4	(X/Y/Z)	/mnt/D494C4CF94C4B4F0/Trampoline_predictions/poses3d/1_partie_0429.trc
DataRate	CameraRate	NumFrames	NumMarkers	Units	OrigDataRate	OrigDataStartFrame	OrigNumFrames
120	120	8	17	m	120	1091	1746
Frame#	Time	Nose			L Eye			R Eye			L Ear			R Ear			L Shoulder			R Shoulder			L Elbow			R Elbow			L Wrist			R Wrist			L Hip			R Hip			L Knee			R Knee			L Ankle			R Ankle			
		X1	Y1	Z1	X2	Y2	Z2	X3	Y3	Z3	X4	Y4	Z4	X5	Y5	Z5	X6	Y6	Z6	X7	Y7	Z7	X8	Y8	Z8	X9	Y9	Z9	X10	Y10	Z10	X11	Y11	Z11	X12	Y12	Z12	X13	Y13	Z13	X14	Y14	Z14	X15	Y15	Z15	X16	Y16	Z16	X17	Y17	Z17	
1091	9.091666666667	-1.1201785954254007	-0.43227205651509265	4.700152226750119	-1.1526682351178505	-0.4534623752872147	4.735884795413151	-1.1511739996227544	-0.40629097404820325	4.724851442754031	-1.1508614573734992	-0.47891326955417196	4.8242996563529505	-1.145318299003483	-0.36112959213042006	4.798367871391022	-0.9831712885628598	-0.5835642537170513	4.865542074146671	-0.988395626138012	-0.2845951719236901	4.812384168462313	-0.7408369879171511	-0.6586883285520302	4.808486316425082	-0.7790638350485857	-0.24125931290287342	4.678803095444257	-0.5306860538154001	-0.6535808351203481	4.70704163954167	-0.5721508090578712	-0.1391155138046979	4.552137333588135	-0.5382112750366089	-0.45268119561332487	4.948332046757423	-0.6457403194067557	-0.21846533871269977	4.932586422690028	-0.44660708423790163	-0.38209993910902423	4.582534370230832	-0.47157097872466247	-0.2926152941359509	4.5607140080584765	-0.32134035874038375	-0.3311136898905477	4.235655154490701	-0.33912110598328304	-0.29735681419480997	4.248310698361606
1092	9.1	-1.1351162359867355	-0.44126652421597135	4.699594182223592	-1.1709840757355419	-0.45817816916448834	4.735899952448871	-1.1676670387460617	-0.41777866389968477	4.722694835056276	-1.172334118580549	-0.47316614986303457	4.826006490727808	-1.1600033758342867	-0.3741700852760153	4.788147538602723	-1.0025533545720333	-0.5755159257784582	4.878436184107832	-1.0058416802870955	-0.29337512100303564	4.809965805604192	-0.7453463015060127	-0.6724856438022669	4.836426473259525	-0.7776789834382081	-0.24205059216756397	4.69502057973494	-0.5407882667803096	-0.6453700474762523	4.782908227945512	-0.5627835529232107	-0.14697235314090398	4.591991725383113	-0.590132474641307	-0.43785680090903983	4.973436650708913	-0.6544402648587837	-0.2339345407784126	4.924197831898841	-0.4185859855870153	-0.37561510570960016	4.598751232705982	-0.4538084244528634	-0.3136070898111998	4.587623846380942	-0.24625178357593933	-0.3288464103459386	4.279829652796553	-0.27014231783712256	-0.28045022487192167	4.273720065663625
1093	9.108333333333	-1.1384534114231422	-0.45021901693977684	4.6912165689116145	-1.1770233296572294	-0.468952295274801	4.731663698180982	-1.169851591397494	-0.4258232347680157	4.713396969136154	-1.185539337163991	-0.4756053502494051	4.823462250168944	-1.1598165605664665	-0.3902590064729148	4.777573455940876	-1.0264487597239291	-0.5682740389209584	4.881862603490467	-1.0084885015750333	-0.30216483244837233	4.802089873691152	-0.7833003923525916	-0.6612436662098428	4.875617551735399	-0.7663046675525826	-0.2591851995750233	4.700469379295868	-0.5705330423512067	-0.6332911219082615	4.832497401607867	-0.5513849820000097	-0.17675021787424272	4.615245773369019	-0.5716137240845867	-0.45161574877562066	4.9417545627279695	-0.6496317817548407	-0.24809093032299762	4.910240543103277	-0.3951502376012802	-0.3728428992171785	4.623506076485201	-0.43447485037136613	-0.30707862955723075	4.616272894526329	-0.1990617697237157	-0.30670516124884917	4.3336377343586285	-0.21517671912121608	-0.2781106012370292	4.329933400323907
1094	9.116666666667	-1.1584936942758086	-0.4406140557898005	4.680705232010075	-1.1922428759307278	-0.46168485606167226	4.7163918652691175	-1.1821720319458289	-0.4117720318545228	4.704425325985048	-1.1902602883432838	-0.48343176533406157	4.80312176734559	-1.1694640111940957	-0.37877158901829217	4.767953455042551	-1.035989034737333	-0.5705021721703748	4.882748874272129	-1.0161289839991283	-0.29685342932308895	4.797443126777514	-0.7949017586871382	-0.6906248036278791	4.887744826771655	-0.7678070007718921	-0.2388042007582092	4.70920261272346	-0.5746656901781299	-0.6574212052764403	4.875533758256988	-0.5360055124976918	-0.14735722680588353	4.641002196580157	-0.5921651471431344	-0.46299062050717793	4.942748235579136	-0.6775182001088301	-0.23968524625887605	4.913852458308986	-0.3539998891101791	-0.3597025820280191	4.639391665206898	-0.4279501133538316	-0.3999338780687773	4.582072195227259	-0.13498795681371833	-0.28305533147369644	4.36870028395813	-0.16067047626851272	-0.24884564495798897	4.365234209581707
1095	9.125	-1.168293628118807	-0.454443888986398	4.6800153729316385	-1.2081680424557437	-0.46800343691359264	4.717792164773606	-1.1977122350380105	-0.42781924922673914	4.699006981283576	-1.214657759865599	-0.4747067384455786	4.809900929914299	-1.18506545057902	-0.3804935606386832	4.7539521252336305	-1.0544547502466122	-0.5738636980441245	4.888537136143117	-1.0224121794408618	-0.30584797561099436	4.783717284295246	-0.8160839715904654	-0.6693553074734476	4.926374208451939	-0.7734877103640382	-0.24681993332235086	4.714555047718719	-0.5856478184259232	-0.6421032614050362	4.935949093892893	-0.5373627650858118	-0.18459584424862996	4.655500486187759	-0.6126346673930042	-0.4606415082879814	4.946734130994918	-0.6769503865809409	-0.2722245759041888	4.888018523970615	-0.329503241821603	-0.35672762846369155	4.670120017524046	-0.41597782690955615	-0.3139114942549118	4.638604802199348	-0.08628295695648018	-0.27470596956864246	4.430581706220977	-0.10992896831092021	-0.23930912365286955	4.4143702256424024
1096	9.133333333333	-1.1883068621491863	-0.47733936496809154	4.672680452624469	-1.2243388611464054	-0.4842373385454713	4.713069887917533	-1.2128881530725535	-0.4466757893411034	4.691466926506873	-1.2261250489780933	-0.4749767812485667	4.808295098608913	-1.1887460554019282	-0.3841982594390146	4.746856192944594	-1.0669622293519032	-0.5805052602694537	4.8958690680147985	-1.0219978637777256	-0.30978870071111075	4.7693253368851005	-0.8244883491325651	-0.6721525363053303	4.949965299734931	-0.7753904079404733	-0.22871978107803867	4.7268729032249635	-0.5888255835618165	-0.6267046918676099	4.991139166159461	-0.53329917489108	-0.13742568714478784	4.690795950828424	-0.6171176420844321	-0.4619791753352479	4.942946242997349	-0.6645358284510515	-0.32551352091704344	4.856789774481757	-0.3077758584663784	-0.358664551860862	4.700979772611424	-0.3827728716927898	-0.29630717396119927	4.654523409252836	-0.04359396811283945	-0.27025846219420546	4.493967799141084	-0.06283700417805868	-0.21756390031539202	4.456606421224187
1097	9.141666666667	-1.1883401735239916	-0.4782678780435565	4.671992029993298	-1.2271700348395436	-0.48168580749781564	4.708354245720826	-1.2154767481680937	-0.448829641861133	4.687421461181428	-1.2278690081104984	-0.4796793240503923	4.79882561665818	-1.1955809083705344	-0.3930034607400913	4.735171671865329	-1.0805027218449998	-0.5827170830048649	4.892502966385663	-1.0270626333657784	-0.32302662024984763	4.763545122733548	-0.8395392726902661	-0.6439830308678383	4.986156350875573	-0.7841668375090095	-0.23483936034154634	4.736270021872378	-0.608720258776426	-0.6102777739776567	5.0356367769310015	-0.5559061155797201	-0.1641340533889369	4.705071379567484	-0.6344839382026995	-0.4577597149574761	4.94524399008408	-0.674855715191646	-0.344655902058748	4.833761831108106	-0.2937652345198246	-0.33766080735475773	4.735836474892308	-0.36509545302624186	-0.26654163024458777	4.687110227294259	0.007777035870689908	-0.2451158081685573	4.549938090383101	-0.02069836663748935	-0.20070931797359157	4.515416640280448
1098	9.15	-1.202117627365285	-0.4720755428173551	4.672612219245855	-1.2389584621915786	-0.4801194905247804	4.708707426285867	-1.230920601209617	-0.4387168764819617	4.684728293401513	-1.23706424259631	-0.48255380109907553	4.791425087233594	-1.2096352030831592	-0.3893510104126269	4.730684814433493	-1.09245569527362	-0.5952596278648412	4.889967915657838	-1.0232804030559417	-0.33827935760965516	4.74512752448669	-0.861212606169733	-0.6366050604468686	5.013740843958902	-0.7783923978611644	-0.25226568384689085	4.732526546515303	-0.6332020182707927	-0.5886218435072655	5.067618915577787	-0.5497084123548697	-0.16271733399354035	4.724065617065539	-0.6368095280124016	-0.45779709618028774	4.9439057327002125	-0.6665501095141645	-0.34570152749427147	4.825694287355353	-0.28084265831318306	-0.3495990528279538	4.761755083817012	-0.34758006861686613	-0.2570306571127711	4.7065625365646735	0.04180692556992741	-0.24131232530029323	4.611692574340843	0.00575012128020321	-0.1872735154828083	4.5678186505494836
